<svg xmlns="http://www.w3.org/2000/svg" xmlns:xlink="http://www.w3.org/1999/xlink" viewBox="0 0 324.88 210"><defs><style>.cls-1{isolation:isolate;}.cls-2{fill:url(#名称未設定グラデーション_15);}.cls-3{fill:url(#名称未設定グラデーション_15-2);}.cls-4{fill:url(#名称未設定グラデーション_15-3);}.cls-5{fill:url(#名称未設定グラデーション_15-4);}.cls-6{fill:url(#名称未設定グラデーション_15-5);}.cls-7{fill:url(#名称未設定グラデーション_15-6);}.cls-8{fill:url(#名称未設定グラデーション_15-7);}.cls-9{fill:url(#名称未設定グラデーション_15-8);}.cls-10{fill:url(#名称未設定グラデーション_15-9);}.cls-11{fill:url(#名称未設定グラデーション_15-10);}.cls-12{fill:url(#名称未設定グラデーション_15-11);}.cls-13{fill:url(#名称未設定グラデーション_5);}.cls-14{fill:url(#名称未設定グラデーション_5-2);}.cls-15{fill:url(#名称未設定グラデーション_5-3);}.cls-16{fill:url(#名称未設定グラデーション_33);}.cls-17{fill:url(#名称未設定グラデーション_5-4);}.cls-18{fill:url(#名称未設定グラデーション_33-2);}.cls-19{fill:url(#名称未設定グラデーション_5-5);}.cls-20{mix-blend-mode:multiply;fill:url(#名称未設定グラデーション_5-6);}.cls-21{opacity:0.8;}.cls-22{fill:url(#エッジにフェード_ホワイト_);}.cls-23{fill:url(#エッジにフェード_ホワイト_2);}.cls-24{fill:url(#エッジにフェード_ホワイト_3);}.cls-25{fill:url(#エッジにフェード_ホワイト_4);}</style><linearGradient id="名称未設定グラデーション_15" x1="33.43" y1="196.6" x2="33.43" y2="157.24" gradientUnits="userSpaceOnUse"><stop offset="0" stop-color="#000034"/><stop offset="0.46" stop-color="#001d62"/><stop offset="0.61" stop-color="#004289"/><stop offset="0.78" stop-color="#0065ae"/><stop offset="0.91" stop-color="#007ac5"/><stop offset="1" stop-color="#0082cd"/></linearGradient><linearGradient id="名称未設定グラデーション_15-2" x1="77.71" y1="196.69" x2="77.71" y2="172.96" xlink:href="#名称未設定グラデーション_15"/><linearGradient id="名称未設定グラデーション_15-3" x1="105" y1="196.74" x2="105" y2="173.02" xlink:href="#名称未設定グラデーション_15"/><linearGradient id="名称未設定グラデーション_15-4" x1="126.21" y1="196.74" x2="126.21" y2="162.2" xlink:href="#名称未設定グラデーション_15"/><linearGradient id="名称未設定グラデーション_15-5" x1="144.72" y1="196.74" x2="144.72" y2="172.96" xlink:href="#名称未設定グラデーション_15"/><linearGradient id="名称未設定グラデーション_15-6" x1="176.1" y1="196.69" x2="176.1" y2="172.96" xlink:href="#名称未設定グラデーション_15"/><linearGradient id="名称未設定グラデーション_15-7" x1="218.9" y1="196.69" x2="218.9" y2="173.07" xlink:href="#名称未設定グラデーション_15"/><linearGradient id="名称未設定グラデーション_15-8" x1="239.92" y1="196.74" x2="239.92" y2="162.2" xlink:href="#名称未設定グラデーション_15"/><linearGradient id="名称未設定グラデーション_15-9" x1="257.56" y1="210" x2="257.56" y2="173.02" xlink:href="#名称未設定グラデーション_15"/><linearGradient id="名称未設定グラデーション_15-10" x1="287.82" y1="196.74" x2="287.82" y2="157.48" xlink:href="#名称未設定グラデーション_15"/><linearGradient id="名称未設定グラデーション_15-11" x1="313.63" y1="196.69" x2="313.63" y2="163.8" xlink:href="#名称未設定グラデーション_15"/><radialGradient id="名称未設定グラデーション_5" cx="272.81" cy="25.59" r="68.02" gradientTransform="matrix(1.15, 0.19, -0.16, 0.99, -76.92, -36.66)" gradientUnits="userSpaceOnUse"><stop offset="0" stop-color="#fff"/><stop offset="0.26" stop-color="#0082cd"/><stop offset="0.34" stop-color="#007ac5"/><stop offset="0.48" stop-color="#0065ae"/><stop offset="0.64" stop-color="#004289"/><stop offset="0.79" stop-color="#001d62"/><stop offset="1" stop-color="#000034"/></radialGradient><radialGradient id="名称未設定グラデーション_5-2" cx="215.49" cy="73.75" r="73.51" xlink:href="#名称未設定グラデーション_5"/><radialGradient id="名称未設定グラデーション_5-3" cx="275.76" cy="79.32" r="22.56" xlink:href="#名称未設定グラデーション_5"/><radialGradient id="名称未設定グラデーション_33" cx="267.82" cy="60.27" r="37.14" gradientTransform="matrix(1.15, 0.19, -0.16, 0.99, -76.92, -36.66)" gradientUnits="userSpaceOnUse"><stop offset="0.01" stop-color="#faee00"/><stop offset="0.53" stop-color="#f39800"/><stop offset="0.59" stop-color="#f09002"/><stop offset="0.69" stop-color="#e87908"/><stop offset="0.81" stop-color="#dc5411"/><stop offset="0.95" stop-color="#ca211e"/><stop offset="1" stop-color="#c30d23"/></radialGradient><radialGradient id="名称未設定グラデーション_5-4" cx="297.75" cy="122.39" r="13.28" xlink:href="#名称未設定グラデーション_5"/><radialGradient id="名称未設定グラデーション_33-2" cx="288.91" cy="114.91" r="19.67" xlink:href="#名称未設定グラデーション_33"/><radialGradient id="名称未設定グラデーション_5-5" cx="285.96" cy="98.36" r="15.13" xlink:href="#名称未設定グラデーション_5"/><radialGradient id="名称未設定グラデーション_5-6" cx="177.08" cy="110.88" r="33.27" xlink:href="#名称未設定グラデーション_5"/><linearGradient id="エッジにフェード_ホワイト_" x1="207.67" y1="142.65" x2="245.41" y2="113.13" gradientTransform="translate(-62.43 -33.72) rotate(9.28)" gradientUnits="userSpaceOnUse"><stop offset="0" stop-color="#fff" stop-opacity="0"/><stop offset="0.5" stop-color="#fff"/><stop offset="1" stop-color="#fff" stop-opacity="0"/></linearGradient><linearGradient id="エッジにフェード_ホワイト_2" x1="208.05" y1="82.97" x2="171.35" y2="140.33" xlink:href="#エッジにフェード_ホワイト_"/><linearGradient id="エッジにフェード_ホワイト_3" x1="174.56" y1="42.9" x2="293.29" y2="-17.99" xlink:href="#エッジにフェード_ホワイト_"/><linearGradient id="エッジにフェード_ホワイト_4" x1="234.34" y1="45.97" x2="330.93" y2="45.97" xlink:href="#エッジにフェード_ホワイト_"/></defs><title>アセット 2</title><g class="cls-1"><g id="レイヤー_2" data-name="レイヤー 2"><g id="logo"><path class="cls-2" d="M61.49,190.07q-8.48,6.54-14,6.53a4.05,4.05,0,0,1-4.3-2.92c-.64-2-.51-4.57.37-7.84a55.59,55.59,0,0,1,4.56-10.44,59.07,59.07,0,0,1,7.48-11.17l2.5-2.82a47.92,47.92,0,0,0-7.83,7.36q-3.36,4-8.47,11.19t-7.44,9.78A43.45,43.45,0,0,1,30.12,194a12.14,12.14,0,0,1-3.21,2.13,12.88,12.88,0,0,1-4.15.48q-1.11,0-1-.54s.29-.6.86-1.71,1.31-2.87,2.24-5.3,2.26-6.56,4-12.39a51.42,51.42,0,0,1,6.88-15q-3.6,2.91-9.42,13.51l-1.47,2.65q-6.08,11-11.11,14.9T4.87,196.6a5.3,5.3,0,0,1-3.8-1.35,3,3,0,0,1-.95-3.12q.38-1.35,3-3a10.91,10.91,0,0,1,3.18-1.68c.44,0,.69.14.76.41A10.75,10.75,0,0,1,7,190.06a3.25,3.25,0,0,0,.36,2.38,2,2,0,0,0,1.54.56q2.31,0,6.24-4.19t8.62-12.95l1.76-3.28a65.56,65.56,0,0,1,3.81-6.39,36.86,36.86,0,0,1,4-4.78,25.31,25.31,0,0,1,4-3.64,9.37,9.37,0,0,1,2.18-.38c1-.1,2.08-.15,3.1-.15.4,0,.54.21.43.62a10.74,10.74,0,0,1-.52,1.22,55,55,0,0,0-2.63,7.62L37.91,174a65.26,65.26,0,0,1-5.83,15.31q2.06-1.72,7-8.94A129.21,129.21,0,0,1,51.24,165a45.91,45.91,0,0,1,5.4-4.73q3-2.26,4-2.42a34.47,34.47,0,0,1,5.5-.55c.54,0,.77.14.7.41a11.19,11.19,0,0,1-1.68,2.55,92.07,92.07,0,0,0-7.85,12.91,72.54,72.54,0,0,0-5.55,13c-1,3.64-.25,5.45,2.2,5.45q3,0,8.38-4.61Z"/><path class="cls-3" d="M93.42,190.07a90.37,90.37,0,0,1-8.31,5.37,9.6,9.6,0,0,1-4.29,1.25q-4.72,0-2.41-7.57a42.92,42.92,0,0,1-7.07,5.72,11.1,11.1,0,0,1-5.72,1.85,4.12,4.12,0,0,1-3.87-2.24A7.19,7.19,0,0,1,61.4,189,18.43,18.43,0,0,1,66,181.2a28.78,28.78,0,0,1,8-6A17.3,17.3,0,0,1,81.37,173q3.73,0,4.39,3.12L92.71,173h1.67L89.59,181c-2.45,4-3.87,6.73-4.27,8.22s0,2.33,1.19,2.33a5.68,5.68,0,0,0,2.88-1.13c1.14-.75,2.76-1.89,4.88-3.43Zm-22.31,1.49q3,0,6.89-4.62a23.14,23.14,0,0,0,5-8.53,3.06,3.06,0,0,0-.1-2.37,1.92,1.92,0,0,0-1.78-.85q-3,0-6.92,4.6a23,23,0,0,0-5,8.49,3,3,0,0,0,.14,2.37A1.92,1.92,0,0,0,71.11,191.56Z"/><path class="cls-4" d="M115.77,190.07q-9.31,6.68-13.39,6.67a3,3,0,0,1-2.7-1.4,4.18,4.18,0,0,1-.32-3.45q1-3.82,7.3-10.25a22.43,22.43,0,0,1-5.24,1.44,47.64,47.64,0,0,1-8,7h-.69l.66-2.44a53.16,53.16,0,0,0,5.5-4.72c-1.53-.68-2.11-1.71-1.74-3.06a11.13,11.13,0,0,1,2.79-4.46,6.65,6.65,0,0,1,5-2.37c1.56,0,2.14.72,1.75,2.17a18.42,18.42,0,0,1-2.67,4.88q5.1-.49,10.55-6.89l2.75-.11L112.61,180q-2.92,4.4-3.87,6a11.49,11.49,0,0,0-1.27,2.81,2.28,2.28,0,0,0,.09,1.81,1.49,1.49,0,0,0,1.39.68,4.55,4.55,0,0,0,2.24-.66c.78-.45,2.59-1.67,5.43-3.68Z"/><path class="cls-5" d="M130.5,190.07q-8.82,6.68-12.29,6.67a2.83,2.83,0,0,1-2.75-1.78,6.38,6.38,0,0,1-.1-4.46q1.56-5.77,8.65-16l8-1.44h.36l-5.3,8.49c-2.19,3.5-3.49,6-3.89,7.51a2,2,0,0,0,0,1.45,1,1,0,0,0,.94.55,5.29,5.29,0,0,0,2.56-.77,39.94,39.94,0,0,0,4.63-3.35Zm6.9-27.6q-1.77,6.51-7.07,6.51a5.52,5.52,0,0,1-4-1.41,27.13,27.13,0,0,0,4.16-5.37,6.52,6.52,0,0,0,3.44,1.33A7.15,7.15,0,0,0,137.4,162.47Z"/><path class="cls-6" d="M159.88,190.07q-8.7,6.62-13.65,6.62a3.26,3.26,0,0,1-2.88-1.28,4,4,0,0,1-.3-3.41q.8-2.91,5-8.87a19.49,19.49,0,0,0,2.51-4.07c.16-.58,0-.86-.51-.86a3,3,0,0,0-1.21.38,18.66,18.66,0,0,0-1.75,1c-.61.42-1.31.92-2.09,1.52s-1.41,1.09-2.21,1.74l-2.15,1.76a7.84,7.84,0,0,0-2.08,2.57c-.72,1.54-1.3,2.95-1.75,4.23-.32,1-.7,2.25-1.14,3.88l-7,1.41q.67-3.66,1.15-5.45a37.11,37.11,0,0,1,3.37-8.27,71.44,71.44,0,0,1,6-8.78l7.64-1.28a79.75,79.75,0,0,0-5.42,8.84,82,82,0,0,1,9.65-6.87,12.21,12.21,0,0,1,5.65-1.91,2.58,2.58,0,0,1,2.25,1,3,3,0,0,1,.31,2.61q-.7,2.61-4.9,8.57a25.32,25.32,0,0,0-3.21,5.31c-.3,1.09.05,1.63,1,1.63q2.19,0,8.5-5.23Z"/><path class="cls-7" d="M191.81,190.07a90.37,90.37,0,0,1-8.31,5.37,9.53,9.53,0,0,1-4.29,1.25q-4.72,0-2.4-7.57a43.35,43.35,0,0,1-7.08,5.72,11.08,11.08,0,0,1-5.72,1.85,4.13,4.13,0,0,1-3.87-2.24,7.19,7.19,0,0,1-.34-5.49,18.4,18.4,0,0,1,4.57-7.76,28.78,28.78,0,0,1,7.95-6,17.38,17.38,0,0,1,7.44-2.28q3.75,0,4.39,3.12L191.1,173h1.68L188,181c-2.44,4-3.87,6.73-4.27,8.22s0,2.33,1.19,2.33a5.62,5.62,0,0,0,2.88-1.13q1.71-1.12,4.88-3.43Zm-22.31,1.49q3,0,6.9-4.62a23.1,23.1,0,0,0,5-8.53,3,3,0,0,0-.1-2.37,1.9,1.9,0,0,0-1.77-.85q-3,0-6.93,4.6a23,23,0,0,0-5,8.49,3,3,0,0,0,.15,2.37A1.89,1.89,0,0,0,169.5,191.56Z"/><path class="cls-8" d="M229.49,190.07a53.07,53.07,0,0,1-8.18,5,16.63,16.63,0,0,1-7.12,1.62q-4.06,0-5.92-2.36t-.82-6.21a20.55,20.55,0,0,1,7.23-10.4q5.65-4.65,11-4.65a5.68,5.68,0,0,1,4.1,1.3,3.28,3.28,0,0,1,.75,3.42q-1.53,5.61-15.64,9.11c-.16,3.52,1.44,5.28,4.82,5.28a9.5,9.5,0,0,0,4-1,46.3,46.3,0,0,0,6.57-4.27Zm-14.32-5q8.19-2,9.62-7.21c.47-1.73,0-2.6-1.39-2.6s-2.82.91-4.51,2.73A16.5,16.5,0,0,0,215.17,185.05Z"/><path class="cls-9" d="M244.21,190.07q-8.82,6.68-12.28,6.67a2.82,2.82,0,0,1-2.75-1.78,6.37,6.37,0,0,1-.11-4.46q1.58-5.77,8.66-16l8-1.44h.36l-5.3,8.49a34.5,34.5,0,0,0-3.9,7.51,2,2,0,0,0,0,1.45,1,1,0,0,0,.94.55,5.26,5.26,0,0,0,2.56-.77,39.79,39.79,0,0,0,4.64-3.35Zm6.9-27.6q-1.77,6.51-7.06,6.51a5.5,5.5,0,0,1-4-1.41,27.09,27.09,0,0,0,4.15-5.37,6.55,6.55,0,0,0,3.44,1.33A7.12,7.12,0,0,0,251.11,162.47Z"/><path class="cls-10" d="M273.6,190.07a33,33,0,0,1-10.54,5.31,41.61,41.61,0,0,1-9.24,10.82Q249,210,244.69,210a4.16,4.16,0,0,1-3.41-1.33,3.74,3.74,0,0,1-.48-3.5,9.41,9.41,0,0,1,4.27-5.2q3.48-2.31,10.92-4.45l2.74-5.34a48.71,48.71,0,0,1-6.14,4.3,9.53,9.53,0,0,1-4.59,1.36,3.57,3.57,0,0,1-3.5-2.11,8,8,0,0,1-.09-5.5q1.5-5.53,7.47-10.37t11.2-4.84a5.32,5.32,0,0,1,4.54,2.22c1-.29,2.27-.72,3.86-1.3l2.36-.87h.69a58.45,58.45,0,0,0-3.49,6.24l-6.49,13.58a30.6,30.6,0,0,0,9.9-5.94Zm-18.89,7.84q-10.52,3.14-11.64,7.26a2.16,2.16,0,0,0,.27,2,2.19,2.19,0,0,0,1.85.78c1.44,0,2.91-.83,4.41-2.47A42,42,0,0,0,254.71,197.91Zm-.63-6.95a6.39,6.39,0,0,0,4.39-2.27,24.42,24.42,0,0,0,4.13-5.78,28.81,28.81,0,0,0,2.23-4.85,2.69,2.69,0,0,0-.13-2.1,1.64,1.64,0,0,0-1.53-.83q-3.17,0-6.59,3.88a19.78,19.78,0,0,0-4.5,7.89,4.18,4.18,0,0,0,0,3A2,2,0,0,0,254.08,191Z"/><path class="cls-11" d="M303,190.07q-8.9,6.68-13.48,6.67a3.6,3.6,0,0,1-3-1.26,3.44,3.44,0,0,1-.47-3.19q.88-3.25,5.24-9.16a18.27,18.27,0,0,0,2.6-4.18c.21-.74-.08-1.11-.86-1.11a9.71,9.71,0,0,0-3.87,1.48,42.91,42.91,0,0,0-5.88,4,69.68,69.68,0,0,0-4.31,12l-7,1.41a46.24,46.24,0,0,1,1.29-6.18,55.86,55.86,0,0,1,6.54-15.05,95.93,95.93,0,0,1,11.73-14.77q4.32-1.44,7.48-2.35a29.54,29.54,0,0,1,3.58-.91c.52,0,.86.38,1,1.14a6.4,6.4,0,0,1-.24,2.85,17.75,17.75,0,0,1-3.67,6.36,84.88,84.88,0,0,1-8.39,8.41c3-1.39,5-2.26,6-2.63a8.15,8.15,0,0,1,2.84-.54,2.47,2.47,0,0,1,2.2,1,3.09,3.09,0,0,1,.24,2.62q-.68,2.44-4.2,7.56t-3.89,6.43a1.3,1.3,0,0,0,.11,1.05.9.9,0,0,0,.82.46q1.92,0,8.48-5.23ZM285.24,179Q299,167.7,300.43,162.36c.29-1.08.11-1.62-.55-1.62q-1.65,0-6.15,5.34A72.87,72.87,0,0,0,285.24,179Z"/><path class="cls-12" d="M320.16,190.07a61.11,61.11,0,0,1-7.88,5,12.84,12.84,0,0,1-5.68,1.62,3.81,3.81,0,0,1-3.64-2,6.91,6.91,0,0,1-.19-5.16,31.71,31.71,0,0,1,3.55-7.45l2.39-4.1-2.33.1,2.12-4.25,2.87-.11,5.11-8.46,8.4-1.49-5.66,9.43,4.29-.21-2.12,4.17-4.74.33L313,183.59a21.77,21.77,0,0,0-2.41,5,2.63,2.63,0,0,0,.14,2.08,1.74,1.74,0,0,0,1.6.8,7.37,7.37,0,0,0,3.27-.88A43,43,0,0,0,321,187Z"/><path class="cls-13" d="M133,79.67s56.7-35.18,157.65-43c0,0-108.64,29.1-143.39,55.14Z"/><path class="cls-14" d="M234.68,2.65C231,1.77,215.46-.41,197,.07c-18.4.93-39.73,4.08-55.07,8.11-20.42,5.59-40,17.4-37.55,35.81,2,14.65,15.65,24.83,28.56,35.68C118.26,90.8,78,112,80.38,130c1.66,12.43,13.54,26.45,40.26,25.36,55.86-2.28,72.2-27.63,70.16-40.72-1.8-11.51-11-25.2-21.53-34.91-4.38-3.88-16-13.18-16-13.18-7.76-5.31-18.26-15.72-18.88-20.38-1.24-9.32,15-19.79,47.89-17.86l22.8,1.28,13,.86c7.79,1.1,9.85-1.13,15.07-8.24,3.23-4.45,7.52-9.78,6.78-15.33C239.59,4.2,238,3.31,234.68,2.65Zm-87.47,89.2c6.06,5.75,11.09,10.4,12.09,18C161.25,124.44,139,132,122,132.07c-5,0-10,.25-10.61-4.63-.83-6.22,8.07-14.45,13.41-18.46Z"/><path class="cls-15" d="M195.93,106.92a39.75,39.75,0,0,1,2.85,10.83,17.91,17.91,0,0,1-1.46,8.47c2.62-1.79,51-34.54,96.41-50.9C293.73,75.32,233.48,88.56,195.93,106.92Z"/><path class="cls-16" d="M182.19,85.88a83.13,83.13,0,0,1,12,15.33C237.73,74.52,302.39,53.4,302.39,53.4,257.42,58.15,196.4,80.5,182.19,85.88Z"/><path class="cls-17" d="M255.59,138.85a353.79,353.79,0,0,0-35.29,15.24,272.85,272.85,0,0,1,35.31-9Q255.49,141.82,255.59,138.85Z"/><path class="cls-18" d="M257.82,123.26C243.4,129,218.07,139.91,203.67,151A436.24,436.24,0,0,1,256,133.16,66.27,66.27,0,0,1,257.82,123.26Z"/><path class="cls-19" d="M269.7,101.67c-18.4,5.59-50.91,18.15-81.1,43.31,0,0,38.47-19.12,72.09-29.91A44,44,0,0,1,269.7,101.67Z"/><path class="cls-20" d="M112.43,122.4c2.44-5.1,8.39-10.43,12.37-13.42l22.41-17.13c-3.15-3-14.26-12.18-14.26-12.18-8.26,6.26-24.62,15.71-36.92,26Z"/><g class="cls-21"><path class="cls-22" d="M125.76,136.55c17,0,39.25-7.63,37.3-22.28a19,19,0,0,0-.66-3,16.05,16.05,0,0,1-5.24,12c-8,7.82-23.34,11.35-35,11.38h-.62a39.84,39.84,0,0,1-5.37-.24C118,136.69,121.86,136.56,125.76,136.55Z"/><path class="cls-23" d="M136.71,84.14l-2.39-2c-3.13,2.33-7.15,5-11.77,8-16.29,10.72-40.89,26.94-39.2,39.64a21.87,21.87,0,0,0,.7,3.26C83.8,115.4,122.4,95,136.71,84.14Z"/><path class="cls-24" d="M108,46.89c-1.16-17.51,17.88-28.81,37.71-34.24,15.34-4,36.67-7.18,55.07-8.11A195.37,195.37,0,0,1,237,6.82c-.13-.88-.34-1.16-2.8-1.64l-.14,0c-.32-.08-1.08-.25-2.53-.49a199.6,199.6,0,0,0-34.15-2c-18,.9-39.33,4-54.36,8-9.06,2.48-38.41,12.21-35.61,33.17A25.68,25.68,0,0,0,108,46.89Z"/><path class="cls-25" d="M158,70.36l2.24,1.82c18.56-8.07,48.28-18.73,88-25.79,4.27-1.34,8.37-2.6,12.19-3.76C213.8,49.25,179,61.35,158,70.36Z"/></g></g></g></g></svg>